<svg xmlns="http://www.w3.org/2000/svg" viewBox="0 0 512.0001 1900.8178"><defs><style>.cls-1{fill:#ff1569;}.cls-2{fill:#fff;}.cls-3{fill:#eaff00;}.cls-4{fill:#0048ff;}</style></defs><title>comment_icons</title><g id="Layer_2" data-name="Layer 2"><g id="Capa_1" data-name="Capa 1"><path class="cls-1" d="M85.3334,196.2667H196.2667a8.5333,8.5333,0,1,0,0-17.0667H85.3334a8.5333,8.5333,0,1,0,0,17.0667Z"/><path class="cls-1" d="M307.2,230.4H85.3334a8.5333,8.5333,0,1,0,0,17.0667H307.2a8.5333,8.5333,0,1,0,0-17.0667Z"/><path class="cls-1" d="M307.2,281.6H85.3334a8.5333,8.5333,0,0,0,0,17.0667H307.2a8.5333,8.5333,0,0,0,0-17.0667Z"/><path class="cls-1" d="M461.4144.5973,170.0694,0a50.6579,50.6579,0,0,0-50.6027,50.6027V94.3275l-68.864.1451A50.6579,50.6579,0,0,0,0,145.0752V325.4784a50.6506,50.6506,0,0,0,50.6027,50.5941H102.4v85.3333a8.5354,8.5354,0,0,0,14.848,5.7429l82.8075-91.0933,141.8752-.58a50.6561,50.6561,0,0,0,50.6027-50.5941v-.9643l44.8854,49.3739a8.5349,8.5349,0,0,0,14.848-5.7429V282.2144h9.1307A50.6561,50.6561,0,0,0,512,231.62V51.2A50.66,50.66,0,0,0,461.4144.5973ZM375.4667,324.8725a33.5741,33.5741,0,0,1-33.57,33.5275l-145.664.5973a8.5387,8.5387,0,0,0-6.2805,2.79L119.4667,439.33V367.5307a8.531,8.531,0,0,0-8.5333-8.5333H50.6027A33.5723,33.5723,0,0,1,17.0667,325.47V145.0667A33.5777,33.5777,0,0,1,50.62,111.5307l77.38-.1621h.0171l213.9136-.4437a33.5741,33.5741,0,0,1,33.536,33.536V324.8725Zm119.4667-93.2693a33.5668,33.5668,0,0,1-33.536,33.5275h-17.664A8.531,8.531,0,0,0,435.2,273.664v71.7995L392.5334,298.53V144.4693a50.6616,50.6616,0,0,0-50.62-50.6027l-205.38.4181V50.5941a33.57,33.57,0,0,1,33.5189-33.536l291.3366.5973h.0171a33.5741,33.5741,0,0,1,33.536,33.536V231.6032Z"/><path class="cls-2" d="M85.3333,687.2667H196.2667a8.5333,8.5333,0,1,0,0-17.0667H85.3333a8.5333,8.5333,0,1,0,0,17.0667Z"/><path class="cls-2" d="M307.2,721.4H85.3333a8.5333,8.5333,0,1,0,0,17.0667H307.2a8.5333,8.5333,0,0,0,0-17.0667Z"/><path class="cls-2" d="M307.2,772.6H85.3333a8.5333,8.5333,0,0,0,0,17.0667H307.2a8.5333,8.5333,0,0,0,0-17.0667Z"/><path class="cls-2" d="M461.4144,491.5973,170.0693,491a50.6579,50.6579,0,0,0-50.6027,50.6027v43.7248l-68.864.1451A50.6579,50.6579,0,0,0,0,636.0752V816.4784a50.6506,50.6506,0,0,0,50.6027,50.5941H102.4v85.3333a8.5354,8.5354,0,0,0,14.848,5.7429l82.8075-91.0933,141.8752-.58a50.6561,50.6561,0,0,0,50.6027-50.5941v-.9643l44.8854,49.3739a8.5349,8.5349,0,0,0,14.848-5.7429V773.2144h9.1307A50.6561,50.6561,0,0,0,512,722.62V542.2A50.66,50.66,0,0,0,461.4144,491.5973ZM375.4667,815.8725a33.5741,33.5741,0,0,1-33.57,33.5275l-145.664.5973a8.5387,8.5387,0,0,0-6.2805,2.79L119.4667,930.33V858.5307a8.531,8.531,0,0,0-8.5333-8.5333H50.6027A33.5723,33.5723,0,0,1,17.0667,816.47V636.0667A33.5777,33.5777,0,0,1,50.62,602.5307l77.38-.1621h.0171l213.9136-.4437a33.5741,33.5741,0,0,1,33.536,33.536V815.8725Zm119.4667-93.2693a33.5668,33.5668,0,0,1-33.536,33.5275h-17.664A8.531,8.531,0,0,0,435.2,764.664v71.7995L392.5333,789.53V635.4693a50.6616,50.6616,0,0,0-50.62-50.6027l-205.38.4181V541.5941a33.57,33.57,0,0,1,33.5189-33.536l291.3366.5973h.0171a33.5741,33.5741,0,0,1,33.536,33.536V722.6032Z"/><path class="cls-3" d="M85.3333,1157.2059H196.2667a8.5333,8.5333,0,0,0,0-17.0667H85.3333a8.5333,8.5333,0,0,0,0,17.0667Z"/><path class="cls-3" d="M307.2,1191.3393H85.3333a8.5333,8.5333,0,1,0,0,17.0667H307.2a8.5333,8.5333,0,1,0,0-17.0667Z"/><path class="cls-3" d="M307.2,1242.5393H85.3333a8.5333,8.5333,0,1,0,0,17.0667H307.2a8.5333,8.5333,0,1,0,0-17.0667Z"/><path class="cls-3" d="M461.4144,961.5366l-291.3451-.5973a50.6579,50.6579,0,0,0-50.6027,50.6027v43.7248l-68.864.1451A50.6579,50.6579,0,0,0,0,1106.0145v180.4032a50.6506,50.6506,0,0,0,50.6027,50.5941H102.4v85.3333a8.5354,8.5354,0,0,0,14.848,5.7429l82.8075-91.0933,141.8752-.58a50.6561,50.6561,0,0,0,50.6027-50.5941v-.9643l44.8854,49.3739a8.5349,8.5349,0,0,0,14.848-5.7429v-85.3333h9.1307A50.6561,50.6561,0,0,0,512,1192.56v-180.42A50.66,50.66,0,0,0,461.4144,961.5366Zm-85.9477,324.2752a33.5741,33.5741,0,0,1-33.57,33.5275l-145.664.5973a8.5387,8.5387,0,0,0-6.2805,2.79l-70.4854,77.5424V1328.47a8.531,8.531,0,0,0-8.5333-8.5333H50.6027a33.5723,33.5723,0,0,1-33.536-33.5275V1106.0059A33.5777,33.5777,0,0,1,50.62,1072.47l77.38-.1621h.0171l213.9136-.4437a33.5741,33.5741,0,0,1,33.536,33.536v180.4117Zm119.4667-93.2693a33.5668,33.5668,0,0,1-33.536,33.5275h-17.664a8.531,8.531,0,0,0-8.5333,8.5333v71.7994l-42.6667-46.9333V1105.4086a50.6616,50.6616,0,0,0-50.62-50.6027l-205.38.4181v-43.6907a33.57,33.57,0,0,1,33.5189-33.536l291.3366.5973h.0171a33.5741,33.5741,0,0,1,33.536,33.536v180.4118Z"/><path class="cls-4" d="M85.3333,1627.1452H196.2667a8.5333,8.5333,0,0,0,0-17.0667H85.3333a8.5333,8.5333,0,0,0,0,17.0667Z"/><path class="cls-4" d="M307.2,1661.2785H85.3333a8.5333,8.5333,0,1,0,0,17.0667H307.2a8.5333,8.5333,0,1,0,0-17.0667Z"/><path class="cls-4" d="M307.2,1712.4785H85.3333a8.5333,8.5333,0,0,0,0,17.0667H307.2a8.5333,8.5333,0,0,0,0-17.0667Z"/><path class="cls-4" d="M461.4144,1431.4758l-291.3451-.5973a50.6579,50.6579,0,0,0-50.6027,50.6027v43.7248l-68.864.1451A50.6579,50.6579,0,0,0,0,1575.9537v180.4032a50.6506,50.6506,0,0,0,50.6027,50.5941H102.4v85.3333a8.5354,8.5354,0,0,0,14.848,5.7429l82.8075-91.0933,141.8752-.58a50.6561,50.6561,0,0,0,50.6027-50.5941v-.9643l44.8854,49.3739a8.5349,8.5349,0,0,0,14.848-5.7429v-85.3333h9.1307A50.6561,50.6561,0,0,0,512,1662.4988v-180.42A50.66,50.66,0,0,0,461.4144,1431.4758ZM375.4667,1755.751a33.5741,33.5741,0,0,1-33.57,33.5275l-145.664.5973a8.5387,8.5387,0,0,0-6.2805,2.79l-70.4854,77.5424v-71.7995a8.531,8.531,0,0,0-8.5333-8.5333H50.6027a33.5723,33.5723,0,0,1-33.536-33.5275V1575.9452a33.5777,33.5777,0,0,1,33.5531-33.536l77.38-.1621h.0171l213.9136-.4437a33.5741,33.5741,0,0,1,33.536,33.536V1755.751Zm119.4667-93.2693a33.5668,33.5668,0,0,1-33.536,33.5275h-17.664a8.531,8.531,0,0,0-8.5333,8.5333v71.7995l-42.6667-46.9333V1575.3478a50.6616,50.6616,0,0,0-50.62-50.6027l-205.38.4181v-43.6907a33.57,33.57,0,0,1,33.5189-33.536l291.3366.5973h.0171a33.5741,33.5741,0,0,1,33.536,33.536v180.4118Z"/></g></g></svg>
