<svg xmlns="http://www.w3.org/2000/svg" viewBox="0 0 512 2048"><defs><style>.cls-1{fill:#ff1569;}.cls-2{fill:#fff;}.cls-3{fill:#eaff00;}.cls-4{fill:#15acf2;}</style></defs><title>discont_icon</title><g id="Layer_2" data-name="Layer 2"><g id="Capa_1" data-name="Capa 1"><path class="cls-1" d="M512,100.6411,411.1229,0H284.0259L233.9368,49.9258C109.39,39.534,8.9669,109.5989,7.56,110.6063a9.0691,9.0691,0,1,0,10.546,14.7572c1.2615-.8985,88.1438-61.4974,198.5867-58.2573L54.4455,228.8272l.0726.0726L0,283.2817,228.2191,512,319.34,421.1244c18.7142,9.8018,40.487,14.6211,62.0237,14.612,31.7742,0,62.94-10.3282,82.5985-29.9863C530.8231,338.88,504.2856,265.53,495.21,245.7172l16.7811-16.7448V100.6411Zm-108.3737-82.49,90.2222,90.0225V221.4395L316.5262,398.1809C279.4608,371.607,268.18,321.7448,284.8246,256.363a9.0756,9.0756,0,0,0-17.5888-4.4834c-23.4971,92.2732,8.0774,137.7791,36.294,159.2523L282.719,431.8791,80.1934,228.927,240.6529,68.885c38.1,4.3564,78.3329,16.9354,118.4024,42.3566a35.266,35.266,0,0,0-.6172,6.1534,36.18,36.18,0,1,0,8.3679-22.68c-37.1108-23.2067-74.3033-36.14-109.98-41.9482l34.6966-34.6149Zm-24.1325,107.094a9.0694,9.0694,0,1,0,10.8818-14.5121c-2.8044-2.0965-5.6179-3.948-8.4223-5.9174a17.5394,17.5394,0,1,1-4.0024,19.35C378.4683,124.5376,378.9856,124.8552,379.4939,125.2455ZM25.6663,283.318l41.6759-41.567L269.9313,444.7758l-41.6759,41.567ZM451.1289,392.9169c-23.3792,23.361-75.9641,34.016-118.2572,14.7118L481.4873,259.4034C490.5177,281.875,505.13,338.9071,451.1289,392.9169Z"/><path class="cls-2" d="M512,612.6411,411.1229,512H284.0259l-50.0891,49.9258C109.39,551.534,8.9669,621.5989,7.56,622.6063a9.0691,9.0691,0,1,0,10.546,14.7572c1.2615-.8985,88.1438-61.4974,198.5867-58.2573L54.4455,740.8272l.0726.0726L0,795.2817,228.2191,1024,319.34,933.1244c18.7142,9.8018,40.487,14.6211,62.0237,14.612,31.7742,0,62.94-10.3282,82.5985-29.9863C530.8231,850.88,504.2856,777.53,495.21,757.7172l16.7811-16.7448V612.6411Zm-108.3737-82.49,90.2222,90.0225V733.4395L316.5262,910.1809C279.4608,883.607,268.18,833.7448,284.8246,768.363a9.0756,9.0756,0,0,0-17.5888-4.4834c-23.4971,92.2732,8.0774,137.7791,36.294,159.2523L282.719,943.8792,80.1934,740.927,240.6529,580.885c38.1,4.3564,78.3329,16.9354,118.4024,42.3566a35.266,35.266,0,0,0-.6172,6.1534,36.18,36.18,0,1,0,8.3679-22.68c-37.1108-23.2067-74.3033-36.14-109.98-41.9482l34.6966-34.6149Zm-24.1325,107.094a9.0694,9.0694,0,1,0,10.8818-14.5121c-2.8044-2.0965-5.6179-3.948-8.4223-5.9174a17.5394,17.5394,0,1,1-4.0024,19.35C378.4683,636.5376,378.9856,636.8553,379.4939,637.2455ZM25.6663,795.318l41.6759-41.567L269.9313,956.7758l-41.6759,41.567ZM451.1289,904.9169c-23.3792,23.361-75.9641,34.016-118.2572,14.7118L481.4873,771.4034C490.5177,793.875,505.13,850.9071,451.1289,904.9169Z"/><path class="cls-3" d="M512,1124.6411,411.1229,1024H284.0259l-50.0891,49.9258C109.39,1063.534,8.9669,1133.5989,7.56,1134.6063a9.0691,9.0691,0,1,0,10.546,14.7572c1.2615-.8985,88.1438-61.4974,198.5867-58.2573L54.4455,1252.8272l.0726.0726L0,1307.2817,228.2191,1536l91.1206-90.8756c18.7142,9.8018,40.487,14.6211,62.0237,14.612,31.7742,0,62.94-10.3282,82.5985-29.9863,66.8611-66.87,40.3236-140.2205,31.2479-160.0329l16.7811-16.7448V1124.6411Zm-108.3737-82.49,90.2222,90.0225v113.2655L316.5262,1422.1809c-37.0654-26.5738-48.3466-76.4361-31.7016-141.8178a9.0756,9.0756,0,0,0-17.5888-4.4834c-23.4971,92.2732,8.0774,137.7791,36.294,159.2523l-20.8107,20.7472L80.1934,1252.927l160.4595-160.042c38.1,4.3564,78.3329,16.9354,118.4024,42.3566a35.266,35.266,0,0,0-.6172,6.1534,36.18,36.18,0,1,0,8.3679-22.68c-37.1108-23.2067-74.3033-36.14-109.98-41.9482l34.6966-34.6149Zm-24.1325,107.094a9.0694,9.0694,0,1,0,10.8818-14.5121c-2.8044-2.0965-5.6179-3.948-8.4223-5.9174a17.5394,17.5394,0,1,1-4.0024,19.35C378.4683,1148.5376,378.9856,1148.8552,379.4939,1149.2455ZM25.6663,1307.318l41.6759-41.567,202.5891,203.0248-41.6759,41.567Zm425.4626,109.5989c-23.3792,23.361-75.9641,34.016-118.2572,14.7118l148.6156-148.2253C490.5177,1305.875,505.13,1362.9071,451.1289,1416.9169Z"/><path class="cls-4" d="M512,1636.6411,411.1229,1536H284.0259l-50.0891,49.9258C109.39,1575.534,8.9669,1645.5989,7.56,1646.6063a9.0691,9.0691,0,1,0,10.546,14.7572c1.2615-.8985,88.1438-61.4974,198.5867-58.2573L54.4455,1764.8271l.0726.0726L0,1819.2817,228.2191,2048l91.1206-90.8756c18.7142,9.8018,40.487,14.6211,62.0237,14.612,31.7742,0,62.94-10.3282,82.5985-29.9863,66.8611-66.87,40.3236-140.2205,31.2479-160.0329l16.7811-16.7448V1636.6411Zm-108.3737-82.49,90.2222,90.0225v113.2655L316.5262,1934.1809c-37.0654-26.5738-48.3466-76.4361-31.7016-141.8178a9.0756,9.0756,0,1,0-17.5888-4.4834c-23.4971,92.2732,8.0774,137.7791,36.294,159.2523l-20.8107,20.7472L80.1934,1764.927l160.4595-160.042c38.1,4.3564,78.3329,16.9354,118.4024,42.3566a35.266,35.266,0,0,0-.6172,6.1534,36.18,36.18,0,1,0,8.3679-22.68c-37.1108-23.2067-74.3033-36.14-109.98-41.9482l34.6966-34.6149Zm-24.1325,107.094a9.0694,9.0694,0,1,0,10.8818-14.5121c-2.8044-2.0965-5.6179-3.948-8.4223-5.9174a17.5394,17.5394,0,1,1-4.0024,19.35C378.4683,1660.5376,378.9856,1660.8552,379.4939,1661.2455ZM25.6663,1819.318l41.6759-41.567,202.5891,203.0248-41.6759,41.567Zm425.4626,109.5989c-23.3792,23.361-75.9641,34.016-118.2572,14.7118l148.6156-148.2253C490.5177,1817.875,505.13,1874.907,451.1289,1928.9169Z"/></g></g></svg>