<?xml version="1.0" encoding="UTF-8"?> <svg xmlns="http://www.w3.org/2000/svg" id="Capa_1" data-name="Capa 1" viewBox="0 0 512 512"> <defs> <style>.cls-1{fill:#fff;}</style> </defs> <title>Artboard 1</title> <path class="cls-1" d="M473.7451,397.2267l-83.3963-36.1216c-1.9627-.9813-4.1387-3.3792-6.0075-6.5792l55.68-.0427c.9728.0939,23.9275,2.1931,42.3339-5.7173a25.3411,25.3411,0,0,0,10.6069-37.8027c-15.9147-22.6475-53.06-81.8261-54.2208-141.85-.0256-1.0325-3.3877-103.1083-104.192-103.936a119.8988,119.8988,0,0,0-41.0453,7.2789,70.9622,70.9622,0,0,0-12.6976-20.9835c-17.5189-20.0022-45.9605-30.14-84.54-30.14S129.2459,31.4709,111.7184,51.456c-20.2069,23.0485-18.33,50.9952-17.8517,55.68v45.3888a34.03,34.03,0,0,0-8.5333,22.4v34.1333a33.9327,33.9327,0,0,0,12.7744,26.53c7.8165,30.95,24.1749,54.272,29.8923,61.7557v28.2368a22.5488,22.5488,0,0,1-11.75,19.7973L40.1237,386.9014A76.9734,76.9734,0,0,0,0,454.5024v36.1643H512V459.119A68.8215,68.8215,0,0,0,473.7451,397.2267ZM375.4667,473.6h-358.4V454.5024A59.8724,59.8724,0,0,1,48.29,401.903L124.416,360.38a39.6265,39.6265,0,0,0,20.6507-34.79V291.2939l-1.9883-2.3723c-.2048-.2475-21.12-25.5488-29.0987-60.288l-.7765-3.3792-2.91-1.8773a17.0251,17.0251,0,0,1-7.8933-14.31V174.9333a16.8419,16.8419,0,0,1,5.7173-12.5867l2.816-2.5344V106.6667l-.0768-1.1179c-.0256-.23-2.9269-23.8848,13.696-42.8459,14.14-16.128,38.272-24.3029,71.7141-24.3029,33.3227,0,57.4037,8.1152,71.5605,24.1323a55.4484,55.4484,0,0,1,12.3477,24.4651c.1365.5973.2645,1.1861.384,1.7749.1195.6059.2475,1.2117.3413,1.792.1109.6656.2048,1.2971.2987,1.9285.0683.4523.1365.9131.1877,1.3483.128,1.0581.23,2.0821.2987,3.0293a1.93,1.93,0,0,1,.0085.2219c.06.9216.1024,1.792.128,2.5856,0,.1536,0,.2816.0085.4352.0171.7083.0171,1.3824.0085,1.9712v.256c-.0341,2.0053-.1707,3.2-.1707,3.2256L281.6,159.8123l2.816,2.5429a16.81,16.81,0,0,1,5.7173,12.5781v34.1333a16.97,16.97,0,0,1-12.1344,16.2048l-4.25,1.3056-1.3653,4.224a178.64,178.64,0,0,1-24.1835,48.7509,112.2806,112.2806,0,0,1-7.1424,9.2075l-2.1248,2.4235v35.2a40.1963,40.1963,0,0,0,.5461,6.3573c.0683.4437.1877.87.2731,1.3141a40.0341,40.0341,0,0,0,1.3227,5.0347c.128.384.2645.7509.41,1.1349a39.6836,39.6836,0,0,0,2.3467,5.1627c.1024.1877.1963.384.2987.5717a38.9506,38.9506,0,0,0,4.3008,6.17l1.9456,2.3979h.3328a39.74,39.74,0,0,0,10.112,7.3045L342.34,402.5856a59.5534,59.5534,0,0,1,33.1264,53.5808Zm119.4667,0h-102.4V456.1664a76.56,76.56,0,0,0-42.5472-68.8469L291.4645,358.05a14.7771,14.7771,0,0,0-13.5424-20.5995H259.0037a21.7422,21.7422,0,0,1-.9643-2.1845A18.627,18.627,0,0,1,256,326.383V297.5318c1.9541-2.3893,4.0107-5.1115,6.1355-8.1152a195.2932,195.2932,0,0,0,25.2075-49.4848A33.8585,33.8585,0,0,0,307.2,209.0667V174.9333a34.03,34.03,0,0,0-8.5333-22.4V107.1445a75.08,75.08,0,0,0-.7168-18.2528,102.1231,102.1231,0,0,1,36.608-6.656c83.9765.6912,87.04,83.7205,87.1253,87.2192,1.2544,64.7083,40.4992,127.3771,57.3184,151.3131a8.2817,8.2817,0,0,1,1.1861,7.0571,7.9724,7.9724,0,0,1-4.5653,5.248c-14.336,6.17-33.7835,4.42-34.7819,4.3776H382.1056a15.7286,15.7286,0,0,0-14.1141,22.6731c2.6709,5.3845,7.39,12.5781,15.1467,16.4438l83.1744,36.0277a51.8347,51.8347,0,0,1,28.6208,46.5237Z"></path> </svg> 