<svg xmlns="http://www.w3.org/2000/svg" viewBox="0 0 62.5937 99.2209"><defs><style>.cls-1{fill:#fff;}.cls-2{fill:#00aae5;}</style></defs><title>mobile_logo_2</title><g id="Layer_2" data-name="Layer 2"><g id="Layer_1-2" data-name="Layer 1"><g id="Layer_2-2" data-name="Layer 2"><g id="Layer_1-2-2" data-name="Layer 1-2"><rect class="cls-1" x="6.17" y="15.1885" width="50.5" height="62"/><path class="cls-2" d="M40.0192,58.309H45.233v-9.09H40.0192Z"/><path class="cls-2" d="M21.5272,28.2247c0-1.1689.0291-2.2941-.0107-3.4169-.0245-.6937-.5412-1.0616-1.3375-1.0612-.7922,0-1.3133.3724-1.3378,1.064-.04,1.1229-.0108,2.2483-.0108,3.4141Z"/><path class="cls-2" d="M62.5733,15.7878c0-1.9407-.0154-3.8815.0114-5.8218a.6846.6846,0,0,0-.5658-.7856L62,9.1776Q54.6592,7.03,47.3266,4.8527c-3.0765-.9136-6.1475-1.8466-9.22-2.7747Q35,1.14,31.8986.1871A1.2424,1.2424,0,0,1,31.6116,0h-.605c-1.2108.409-2.412.8492-3.6341,1.2206-2.6638.8095-5.3382,1.5839-8.0083,2.3728Q12.5693,5.6009,5.7753,7.6112C3.8458,8.1851,1.9249,8.7879,0,9.3776V99.2209C1.8276,98.6591,3.65,98.08,5.4839,97.54c2.6724-.7868,5.3553-1.5377,8.03-2.3175q6.16-1.7959,12.3143-3.612c3.1723-.9371,6.3354-1.905,9.51-2.8353,5.4176-1.5877,10.8424-3.151,16.261-4.7355,3.461-1.012,6.9106-2.064,10.3793-3.0491.6744-.1915.5959-.6154.5959-1.0852Q62.5731,47.8465,62.5733,15.7878ZM37.1322,25.5561c.04-1.84.5975-3.5247,2.46-4.3438,2.0707-.9108,4.8274-.6845,6.2348.9185a4.3877,4.3877,0,0,1,1.0816,2.376c.152,2.0755.05,4.17.05,6.3687H40.7677c0,1.7151-.0415,3.3727.0207,5.0265A1.1967,1.1967,0,0,0,41.97,37.0333a1.12,1.12,0,0,0,1.3075-.8734,8.9438,8.9438,0,0,0,.1827-1.625c.0266-.3957.0052-.7946.0052-1.2354h3.6422c-.0007,2.0114.0941,4.0308-1.5528,5.4954a5.6124,5.6124,0,0,1-2.161,1.0806,4.9272,4.9272,0,0,1-5.5671-2.0977,5.7648,5.7648,0,0,1-.6828-2.6972Q37.0239,30.3208,37.1322,25.5561Zm-21.935.1634a5.2376,5.2376,0,0,1,1.2142-3.5868,5.0605,5.0605,0,0,1,4.6074-1.369A3.99,3.99,0,0,1,24.4451,22.82a7.3533,7.3533,0,0,1,.6991,2.6937c.1074,1.7494.0312,3.51.0312,5.3253H18.9647c0,1.8-.028,3.5409.014,5.28.0164.6788.5964.8643,1.1621.9128a1.059,1.059,0,0,0,1.2088-.8842l.0012-.0079a22.9135,22.9135,0,0,0,.1845-2.4559l.0239-.3642h3.5979c.0567,1.9742.176,4-1.5277,5.4755a4.54,4.54,0,0,1-2.0907,1.03c-2.1322.3629-4.4162.1928-5.67-2.1955a6.3174,6.3174,0,0,1-.6566-2.6933c-.0791-3.07-.0629-6.1449-.0149-9.2163Zm-4.4188-7.0728c.8942-.149,1.7626-.452,2.7334-.7134V39.7221H10.0377v-.7843q0-9.6366-.0107-19.2733C10.0254,19.0844,10.107,18.7585,10.7784,18.6467Zm18.7887,24.454q0,11-.0013,21.9991a7.2159,7.2159,0,0,1-5.8888,7.3153,18.6269,18.6269,0,0,1-3.967.18,21.3024,21.3024,0,0,1-3.9681-.18,7.2641,7.2641,0,0,1-5.5468-5.9464,13.3172,13.3172,0,0,1-.151-1.9353q-.0155-10.697-.0064-21.3942V42.217h7.0889V65.4259H22.424V42.2376h7.1431Zm2.6389-3.3436c-.9531.0455-1.91.0211-2.939.0211-1.1588-6.2515-2.3121-12.4727-3.4726-18.7334h3.4112c.56,3.5069,1.1153,6.9867,1.6708,10.4665l.1528-.006q.5462-3.4645,1.0914-6.9291c.1606-1.0288.2867-2.0639.4849-3.0852a.74.74,0,0,1,.5282-.46c.9509-.0473,1.9053-.0216,2.9959-.0216-.1845,1.07-.3416,2.0609-.5278,3.0461-.5424,2.87-1.1035,5.7364-1.6436,8.6068-.4167,2.2144-.8025,4.4348-1.2366,6.6457A.7227.7227,0,0,1,32.206,39.7571ZM52.3794,58.2027a7.3237,7.3237,0,0,1-6.1593,7.11,49.8125,49.8125,0,0,1-5.3328.1808c-.27.0072-.54.001-.87.001v7.2037h-7.118V42.0335h.8279c3.6032,0,7.2069-.0366,10.8094.0135a7.9917,7.9917,0,0,1,5.8325,2.4049,7.0038,7.0038,0,0,1,2.0132,4.8325C52.4623,52.2555,52.4974,55.2341,52.3794,58.2027Zm.1779-18.4515H49.1058V17.89c1.0182.2891,2.0487.5411,3.0421.8969.207.0742.3913.5319.3924.8136.0226,5.7394.017,11.4789.017,17.2184Z"/><path class="cls-2" d="M43.46,28.248c0-1.1493.045-2.2265-.0183-3.2973-.0334-.5651-.2259-1.1416-.97-1.203-.9435-.0779-1.6108.1894-1.66.8539-.09,1.209-.0257,2.43-.0257,3.6464Z"/></g></g></g></g></svg>