<?xml version="1.0" encoding="utf-8"?>
<!-- Generator: Adobe Illustrator 22.1.0, SVG Export Plug-In . SVG Version: 6.00 Build 0)  -->
<svg version="1.2" baseProfile="tiny" id="Layer_1" xmlns="http://www.w3.org/2000/svg" xmlns:xlink="http://www.w3.org/1999/xlink"
	 x="0px" y="0px" viewBox="0 0 512 2047.9" xml:space="preserve">
<title>Artboard 1</title>
<path fill="#FF1569" d="M500.4,69.8H11.6C5.2,69.8,0,75,0,81.4l0,0v349.1c0,6.4,5.2,11.6,11.6,11.6l0,0h488.7
	c6.4,0,11.6-5.2,11.6-11.6l0,0v-349C512,75,506.8,69.8,500.4,69.8L500.4,69.8z M488.7,390.8L344.6,246.6l-16.5,16.5L484,418.9H28
	l155.8-155.8l-16.5-16.5l-144,144.2V93.1h465.5L488.7,390.8L488.7,390.8z"/>
<path fill="#FF1569" d="M465.2,93.1L256,302.3L46.8,93.1H23.3v9.4L247.8,327c4.5,4.5,11.9,4.6,16.4,0l0,0l224.5-224.5v-9.4H465.2z"
	/>
<rect fill="none" width="511.9" height="511.9"/>
<path fill="#FFFFFF" d="M500.4,581.8H11.6C5.2,581.8,0,587,0,593.4l0,0v349.1c0,6.4,5.2,11.6,11.6,11.6l0,0h488.7
	c6.4,0,11.6-5.2,11.6-11.6l0,0v-349C512,587,506.8,581.8,500.4,581.8L500.4,581.8z M488.7,902.8L344.6,758.6l-16.5,16.5L484,930.9
	H28l155.8-155.8l-16.5-16.5l-144,144.2V605.1h465.5L488.7,902.8L488.7,902.8z"/>
<path fill="#FFFFFF" d="M465.2,605.1L256,814.3L46.8,605.1H23.3v9.4L247.8,839c4.5,4.5,11.9,4.6,16.4,0l0,0l224.5-224.5v-9.4H465.2z
	"/>
<path fill="#EAFF00" d="M500.4,1093.7H11.6c-6.4,0-11.6,5.2-11.6,11.6l0,0v349.1c0,6.4,5.2,11.6,11.6,11.6l0,0h488.7
	c6.4,0,11.6-5.2,11.6-11.6l0,0v-349C512,1098.9,506.8,1093.7,500.4,1093.7L500.4,1093.7z M488.7,1414.7l-144.1-144.2l-16.5,16.5
	L484,1442.8H28L183.8,1287l-16.5-16.5l-144,144.2V1117h465.5L488.7,1414.7L488.7,1414.7z"/>
<path fill="#EAFF00" d="M465.2,1117L256,1326.2L46.8,1117H23.3v9.4l224.5,224.5c4.5,4.5,11.9,4.6,16.4,0l0,0l224.5-224.5v-9.4H465.2
	z"/>
<g>
	<g>
		<g>
			<path fill="#15ACF2" d="M500.4,1605.7H11.6c-6.4,0-11.6,5.2-11.6,11.6v349.1c0,6.4,5.2,11.6,11.6,11.6h488.7
				c6.4,0,11.6-5.2,11.6-11.6v-349.1C512,1610.9,506.8,1605.7,500.4,1605.7z M488.7,1926.7l-144.2-144.1l-16.5,16.5L484,1954.8H28
				L183.9,1799l-16.5-16.5L23.3,1926.7V1629h465.5V1926.7z"/>
		</g>
	</g>
	<g>
		<g>
			<path fill="#15ACF2" d="M465.2,1629L256,1838.2L46.8,1629H23.3v9.4l224.5,224.5c4.5,4.5,11.9,4.5,16.5,0l224.5-224.5v-9.4H465.2z
				"/>
		</g>
	</g>
</g>
</svg>
