<?xml version="1.0" encoding="UTF-8"?> <svg xmlns="http://www.w3.org/2000/svg" id="Capa_1" data-name="Capa 1" viewBox="0 0 512 512"> <defs> <style>.cls-1{fill:#fff;}</style> </defs> <title>Artboard 1</title> <path class="cls-1" d="M411.4978,512c-21.3025,0-47.0308-5.3385-75.325-16.0156-62.03-23.3862-129.52-69.6076-190.0346-130.1225C85.606,305.33,39.3846,237.8232,15.9812,175.7928c-21.268-56.3991-21.32-102.6893-.1205-123.8713,3.0481-3.0481,6.1479-6.32,9.351-9.6955C44.5509,21.888,66.4045-.9988,95.37.0344,115.33.8611,134.6689,13.26,154.4731,37.9036c58.5172,72.7763,32.1345,98.7112,1.6016,128.7793l-5.39,5.3385c-4.9941,4.9941-14.4313,28.122,73.3618,115.9151,28.6559,28.6559,53.0926,49.6312,72.6213,62.3231,12.2959,7.9906,34.2872,20.08,43.311,11.0559l5.4247-5.4763c30.0336-30.4641,55.9685-56.7607,128.6931,1.7049,24.6434,19.8042,37.0253,39.1263,37.8519,59.12,1.1883,28.9486-21.8708,50.8539-42.2261,70.1759-3.3581,3.2031-6.63,6.3029-9.6783,9.3338C449.5219,506.7131,432.6969,512,411.4978,512ZM93.3038,17.2211c-20.5792,0-39.1607,19.5631-55.6069,36.87-3.3064,3.4787-6.51,6.854-9.661,10.0054C12.2442,79.8714,13.8458,121.3225,32.1,169.731c22.56,59.7916,67.3861,125.1284,126.2305,183.9728,58.8272,58.81,124.13,103.6365,183.9384,126.1789,48.4085,18.2888,89.86,19.8387,105.6169,4.0814,3.1515-3.1515,6.5268-6.3546,10.0054-9.6438,17.6861-16.8078,37.7486-35.8543,36.87-56.9846-.6027-14.5174-11.1765-30.1369-31.4285-46.4108-60.601-48.7357-77.5465-31.5318-105.6513-3.0309l-5.5107,5.5624c-13.4325,13.45-35.2515,10.47-64.8718-8.7828-20.5447-13.3636-45.9286-35.0966-75.4111-64.5963-72.8624-72.8452-96.1625-117.4306-73.3618-140.2829L144.02,154.37c28.57-28.1048,45.8081-45.0676-2.9448-105.703-16.3084-20.2348-31.9107-30.8085-46.428-31.4285C94.1993,17.2211,93.7516,17.2211,93.3038,17.2211Z"></path> </svg> 