<svg xmlns="http://www.w3.org/2000/svg" viewBox="0 0 179.3155 99.2209"><defs><style>.cls-1{fill:#fff;}.cls-2{fill:#00aae5;}</style></defs><title>logo_2</title><g id="Layer_2" data-name="Layer 2"><g id="Layer_1-2" data-name="Layer 1"><rect class="cls-1" x="6.17" y="15.1885" width="50.5" height="62"/><path class="cls-2" d="M40.0192,58.309H45.233v-9.09H40.0192Z"/><path class="cls-2" d="M21.5272,28.2247c0-1.1689.0291-2.2941-.0107-3.4169-.0245-.6937-.5412-1.0616-1.3375-1.0612-.7922,0-1.3133.3724-1.3378,1.064-.04,1.1229-.0108,2.2483-.0108,3.4141Z"/><path class="cls-2" d="M62.5733,15.7878c0-1.9407-.0154-3.8815.0114-5.8218A.6846.6846,0,0,0,62,9.1776Q54.6592,7.03,47.3266,4.8527c-3.0765-.9136-6.1475-1.8466-9.22-2.7747Q35,1.14,31.8986.1871A1.2424,1.2424,0,0,1,31.6116,0h-.605c-1.2108.409-2.412.8492-3.6341,1.2206-2.6638.8095-5.3382,1.5839-8.0083,2.3728Q12.5693,5.6009,5.7753,7.6112C3.8458,8.1851,1.9249,8.7879,0,9.3776Q0,54.2993,0,99.2209C1.8276,98.6591,3.65,98.08,5.4839,97.54c2.6724-.7868,5.3553-1.5377,8.03-2.3175q6.16-1.7959,12.3143-3.612c3.1723-.9371,6.3354-1.905,9.51-2.8353,5.4176-1.5877,10.8424-3.151,16.261-4.7355,3.461-1.012,6.9106-2.064,10.3793-3.0491.6744-.1915.5959-.6154.5959-1.0852Q62.5731,47.8465,62.5733,15.7878ZM37.1322,25.5561c.04-1.84.5975-3.5247,2.46-4.3438,2.0707-.9108,4.8274-.6845,6.2348.9185a4.3877,4.3877,0,0,1,1.0816,2.376c.152,2.0755.05,4.17.05,6.3687H40.7677c0,1.7151-.0415,3.3727.0207,5.0265A1.1967,1.1967,0,0,0,41.97,37.0333a1.12,1.12,0,0,0,1.3075-.8734,8.9439,8.9439,0,0,0,.1827-1.625c.0266-.3957.0052-.7946.0052-1.2354h3.6422c-.0007,2.0114.0941,4.0308-1.5528,5.4954a5.6124,5.6124,0,0,1-2.161,1.0806,4.9272,4.9272,0,0,1-5.5671-2.0977,5.7648,5.7648,0,0,1-.6828-2.6972Q37.0239,30.3208,37.1322,25.5561Zm-21.935.1634a5.2376,5.2376,0,0,1,1.2142-3.5868,5.0605,5.0605,0,0,1,4.6074-1.369A3.99,3.99,0,0,1,24.4451,22.82a7.3533,7.3533,0,0,1,.6991,2.6937c.1074,1.7494.0312,3.51.0312,5.3253H18.9647c0,1.8005-.028,3.5409.014,5.28.0164.6788.5964.8643,1.1621.9128a1.059,1.059,0,0,0,1.21-.8921,22.9135,22.9135,0,0,0,.1845-2.4559l.0239-.3642h3.5979c.0567,1.9742.176,4-1.5277,5.4755a4.54,4.54,0,0,1-2.0907,1.03c-2.1322.3629-4.4162.1928-5.67-2.1955a6.3174,6.3174,0,0,1-.6566-2.6933C15.133,31.8659,15.1492,28.7914,15.1972,25.72Zm-4.4188-7.0728c.8942-.149,1.7626-.452,2.7334-.7134V39.7221H10.0377v-.7843q0-9.6366-.0107-19.2733C10.0254,19.0844,10.107,18.7585,10.7784,18.6467Zm18.7887,24.454q0,10.9995-.0013,21.9991a7.2159,7.2159,0,0,1-5.8888,7.3153,18.6268,18.6268,0,0,1-3.967.18,21.3021,21.3021,0,0,1-3.9681-.18,7.2641,7.2641,0,0,1-5.5468-5.9464,13.3173,13.3173,0,0,1-.151-1.9353q-.0155-10.697-.0064-21.3942v-.9222h7.0889V65.4259H22.424V42.2376h7.1431Zm2.6389-3.3436c-.9531.0455-1.91.0211-2.939.0211-1.1588-6.2515-2.3121-12.4727-3.4726-18.7334h3.4112c.56,3.5069,1.1153,6.9867,1.6708,10.4665l.1528-.006q.5462-3.4645,1.0914-6.9291c.1606-1.0288.2867-2.0639.4849-3.0852a.74.74,0,0,1,.5282-.46c.9509-.0473,1.9053-.0216,2.9959-.0216-.1845,1.07-.3416,2.0609-.5278,3.0461-.5424,2.87-1.1035,5.7364-1.6436,8.6068-.4167,2.2144-.8025,4.4348-1.2366,6.6457A.7227.7227,0,0,1,32.206,39.7571ZM52.3794,58.2027a7.3237,7.3237,0,0,1-6.1593,7.11,49.8128,49.8128,0,0,1-5.3328.1808c-.27.0072-.54.001-.87.001v7.2037H32.8993V42.0335h.8279c3.6032,0,7.2069-.0366,10.8094.0135a7.9917,7.9917,0,0,1,5.8325,2.4049,7.0038,7.0038,0,0,1,2.0132,4.8325C52.4623,52.2555,52.4974,55.2341,52.3794,58.2027Zm.1779-18.4515H49.1058V17.89c1.0182.2891,2.0487.5411,3.0421.8969.207.0742.3913.5319.3924.8136.0226,5.7394.017,11.4789.017,17.2184Z"/><path class="cls-2" d="M43.46,28.248c0-1.1493.045-2.2265-.0183-3.2973-.0334-.5651-.2259-1.1416-.97-1.203-.9435-.0779-1.6108.1894-1.66.8539-.09,1.209-.0257,2.43-.0257,3.6464Z"/><path class="cls-1" d="M82.2393,31.4287l.3071,1.04.0708.0117,3.6162-8.6978h3.6519L83.61,37.7281a7.375,7.375,0,0,1-1.7964,2.5879,4.3173,4.3173,0,0,1-2.9424.9219,5.8109,5.8109,0,0,1-1.2646-.124q-.5559-.1238-1.2764-.36l.4019-2.47q.5317.1538.9395.23a4.4217,4.4217,0,0,0,.8213.0771,2.32,2.32,0,0,0,1.4893-.42,2.7349,2.7349,0,0,0,.8154-1.2466l.26-.65L74.9947,23.7827h3.7227Z"/><path class="cls-1" d="M102.8287,40.99H99.3775V36.9361a7.3425,7.3425,0,0,1-.8921.1362q-.4548.041-.8569.041a6.8963,6.8963,0,0,1-4.355-1.2056,4.4039,4.4039,0,0,1-1.53-3.687V28.2027h3.4507v4.0181A2.244,2.244,0,0,0,95.75,33.97a2.86,2.86,0,0,0,1.8789.4844,8.0355,8.0355,0,0,0,.8687-.0469q.4314-.0476.88-.1421V28.2027h3.4512Z"/><path class="cls-1" d="M111.5528,41.2378a5.7541,5.7541,0,0,1-4.4673-1.7549,6.4328,6.4328,0,0,1-1.6069-4.5205V34.49a7.001,7.001,0,0,1,1.56-4.7036,5.3021,5.3021,0,0,1,4.29-1.82,4.9641,4.9641,0,0,1,3.9531,1.5776,6.2351,6.2351,0,0,1,1.377,4.2485v1.7847h-7.6226L109,35.648a3.4568,3.4568,0,0,0,.7979,2.1274,2.6715,2.6715,0,0,0,2.1216.8154,7.09,7.09,0,0,0,1.9673-.2363,8.0205,8.0205,0,0,0,1.6724-.7212l.9336,2.1274a6.407,6.407,0,0,1-2.08,1.0518A9.2266,9.2266,0,0,1,111.5528,41.2378Zm-.2246-10.6128a1.9163,1.9163,0,0,0-1.6011.7153,3.5823,3.5823,0,0,0-.68,1.8965l.0239.0591h4.207v-.26a2.9865,2.9865,0,0,0-.4609-1.7666A1.7043,1.7043,0,0,0,111.3282,30.625Z"/><path class="cls-1" d="M125.0391,27.9663a5.2031,5.2031,0,0,1,4.2188,1.82,7.0534,7.0534,0,0,1,1.5254,4.6919v.248a6.8328,6.8328,0,0,1-1.6016,4.6978,6.32,6.32,0,0,1-8.8633,0,6.8328,6.8328,0,0,1-1.6016-4.6978V34.354a.5779.5779,0,0,1,.0117-.1123v-2.73q0-3.947,1.4355-5.69a5.723,5.723,0,0,1,4.51-1.8262,6.6641,6.6641,0,0,0,2.2988-.3486,1.0815,1.0815,0,0,0,.7383-1.0576h2.67l.0117.0708a3.3816,3.3816,0,0,1-1.27,3.15,7.9278,7.9278,0,0,1-4.1543.9277,4.3259,4.3259,0,0,0-2.6523.7563,2.1467,2.1467,0,0,0-.8223,1.938l.0352.0591a4.74,4.74,0,0,1,1.5313-1.0933A4.6288,4.6288,0,0,1,125.0391,27.9663Zm-.2949,2.6587a2.09,2.09,0,0,0-1.9609,1.0757,5.55,5.55,0,0,0-.6152,2.7773v.248a5.5558,5.5558,0,0,0,.6152,2.8066,2.3606,2.3606,0,0,0,3.9414-.0059,5.5415,5.5415,0,0,0,.6191-2.8008v-.248a5.4854,5.4854,0,0,0-.625-2.7773A2.1213,2.1213,0,0,0,124.7442,30.625Z"/><path class="cls-1" d="M144.294,40.99h-3.4512V36.0264h-4.207V40.99h-3.4512V28.2027h3.4512v5.1763h4.207V28.2027h3.4512Z"/><path class="cls-1" d="M151.41,32.3389H153.81a6.3008,6.3008,0,0,1,4.0537,1.1875,3.8048,3.8048,0,0,1,1.4766,3.1143,3.8607,3.8607,0,0,1-1.4766,3.1494,6.2551,6.2551,0,0,1-4.0537,1.2h-5.8623V28.2027H151.41Zm0,2.6475v3.3682H153.81a2.27,2.27,0,0,0,1.5713-.4731,1.6626,1.6626,0,0,0,0-2.4165,2.2509,2.2509,0,0,0-1.5713-.4785ZM163.9962,40.99h-3.45V28.2027h3.45Z"/><path class="cls-1" d="M175.876,28.2027h3.4395V40.99H175.876v-7.8l-.07-.0122-4.1719,7.812h-3.4512V28.2027h3.4512V35.979l.07.0117Zm1.8789-5.5664.0244.0708a2.9245,2.9245,0,0,1-1.0459,2.4521,5.1461,5.1461,0,0,1-5.9629,0,2.8877,2.8877,0,0,1-1.04-2.4521l.0234-.0708h2.5176a1.4826,1.4826,0,0,0,.36,1.0283,1.4441,1.4441,0,0,0,1.1289.4019,1.411,1.411,0,0,0,1.1045-.4019,1.4832,1.4832,0,0,0,.3613-1.0283Z"/><path class="cls-1" d="M79.95,65.5254H77.5015V47.522H79.95Z"/><path class="cls-1" d="M97.2759,49.4385H91.3409V65.5254h-2.436V49.4385H83.0435V47.522H97.2759Z"/><path class="cls-1" d="M104.859,58.8721H97.5631V56.9688h7.2959Z"/><path class="cls-1" d="M109.3126,52.1465h2.436V63.6211h5.9727V52.1465h2.4351V63.6211h1.6328v6.2813h-2.4355v-4.377h-10.041Z"/><path class="cls-1" d="M130.546,65.7852a5.6574,5.6574,0,0,1-4.4941-1.8428,7.0874,7.0874,0,0,1-1.6143-4.8477v-.543a6.942,6.942,0,0,1,1.6631-4.7666,5.2163,5.2163,0,0,1,4.0625-1.8857,4.8551,4.8551,0,0,1,4.0244,1.6689,6.8782,6.8782,0,0,1,1.3418,4.4395V59.294h-8.5566l-.0371.0605a5.53,5.53,0,0,0,.8906,3.2715,3.1085,3.1085,0,0,0,2.72,1.2549,6.1262,6.1262,0,0,0,2.1709-.3525,4.8537,4.8537,0,0,0,1.6006-.9707l.9521,1.583a5.8243,5.8243,0,0,1-1.8916,1.168A7.5389,7.5389,0,0,1,130.546,65.7852Zm-.3828-11.9692a2.6479,2.6479,0,0,0-2.1084.9829,4.6522,4.6522,0,0,0-1.0205,2.5166l.0254.0615h6.0342v-.1982a3.8922,3.8922,0,0,0-.7178-2.4106A2.5907,2.5907,0,0,0,130.1632,53.8159Z"/><path class="cls-1" d="M149.7276,65.5254h-2.4365V59.8369h-5.96v5.6885h-2.4355V52.1465h2.4355v5.7871h5.96V52.1465h2.4365Z"/><path class="cls-1" d="M164.2344,54.0386H159.82V65.5254h-2.4365V54.0386h-4.3525V52.1465h11.2031Z"/><path class="cls-1" d="M178.9151,59.3428a7.3768,7.3768,0,0,1-1.3848,4.668,4.58,4.58,0,0,1-3.8213,1.7744,5.32,5.32,0,0,1-2.17-.4141A4.1483,4.1483,0,0,1,169.95,64.128v6.541h-2.4355V52.1465h1.8672l.3828,1.731a4.4258,4.4258,0,0,1,1.6328-1.4712,4.8685,4.8685,0,0,1,2.2744-.5068,4.4458,4.4458,0,0,1,3.8643,1.9722,8.9169,8.9169,0,0,1,1.3789,5.2114Zm-2.4355-.26a7.0684,7.0684,0,0,0-.8965-3.74,2.9059,2.9059,0,0,0-2.6406-1.4653,3.2566,3.2566,0,0,0-1.793.4761,3.5663,3.5663,0,0,0-1.1992,1.3047V62.125a3.4523,3.4523,0,0,0,1.1992,1.292,3.3634,3.3634,0,0,0,1.8184.4639,2.9994,2.9994,0,0,0,2.6211-1.2676,5.5639,5.5639,0,0,0,.8906-3.2705Z"/></g></g></svg>