<?xml version="1.0" encoding="utf-8"?>
<!-- Generator: Adobe Illustrator 22.1.0, SVG Export Plug-In . SVG Version: 6.00 Build 0)  -->
<svg version="1.1" id="Layer_1" xmlns="http://www.w3.org/2000/svg" xmlns:xlink="http://www.w3.org/1999/xlink" x="0px" y="0px"
	 viewBox="0 0 179.3 98.6" style="enable-background:new 0 0 179.3 98.6;" xml:space="preserve">
<style type="text/css">
	.st0{fill:#FFFFFF;}
</style>
<g>
	<path class="st0" d="M82.2,31.3l0.3,1l0.1,0l3.6-8.7h3.7l-6.3,13.9c-0.5,1.1-1.1,2-1.8,2.6c-0.7,0.6-1.7,0.9-2.9,0.9
		c-0.5,0-0.9,0-1.3-0.1c-0.4-0.1-0.8-0.2-1.3-0.4l0.4-2.5c0.4,0.1,0.7,0.2,0.9,0.2c0.3,0.1,0.5,0.1,0.8,0.1c0.6,0,1.1-0.1,1.5-0.4
		c0.3-0.3,0.6-0.7,0.8-1.2l0.3-0.6L75,23.6h3.7L82.2,31.3z"/>
	<path class="st0" d="M102.8,40.8h-3.5v-4.1c-0.3,0.1-0.6,0.1-0.9,0.1c-0.3,0-0.6,0-0.9,0c-1.9,0-3.3-0.4-4.4-1.2
		c-1-0.8-1.5-2-1.5-3.7v-4h3.5v4c0,0.8,0.2,1.4,0.6,1.7c0.4,0.3,1,0.5,1.9,0.5c0.3,0,0.6,0,0.9,0c0.3,0,0.6-0.1,0.9-0.1V28h3.5V40.8
		z"/>
	<path class="st0" d="M111.6,41.1c-1.9,0-3.4-0.6-4.5-1.8c-1.1-1.2-1.6-2.7-1.6-4.5v-0.5c0-1.9,0.5-3.5,1.6-4.7
		c1-1.2,2.5-1.8,4.3-1.8c1.7,0,3,0.5,4,1.6c0.9,1.1,1.4,2.5,1.4,4.2v1.8H109l0,0.1c0.1,0.9,0.3,1.6,0.8,2.1c0.5,0.5,1.2,0.8,2.1,0.8
		c0.8,0,1.4-0.1,2-0.2c0.5-0.2,1.1-0.4,1.7-0.7l0.9,2.1c-0.5,0.4-1.2,0.8-2.1,1.1C113.5,40.9,112.6,41.1,111.6,41.1z M111.3,30.5
		c-0.7,0-1.2,0.2-1.6,0.7c-0.4,0.5-0.6,1.1-0.7,1.9l0,0.1h4.2v-0.3c0-0.7-0.2-1.3-0.5-1.8C112.5,30.7,112,30.5,111.3,30.5z"/>
	<path class="st0" d="M125,27.8c1.8,0,3.2,0.6,4.2,1.8c1,1.2,1.5,2.8,1.5,4.7v0.2c0,1.9-0.5,3.5-1.6,4.7s-2.5,1.8-4.4,1.8
		c-1.9,0-3.4-0.6-4.4-1.8s-1.6-2.8-1.6-4.7v-0.2c0,0,0-0.1,0-0.1c0,0,0-0.1,0-0.1v-2.7c0-2.6,0.5-4.5,1.4-5.7s2.5-1.8,4.5-1.8
		c1,0,1.8-0.1,2.3-0.3c0.5-0.2,0.7-0.6,0.7-1.1h2.7l0,0.1c0,1.5-0.4,2.6-1.3,3.1s-2.3,0.9-4.2,0.9c-1.2,0-2.1,0.3-2.7,0.8
		c-0.6,0.5-0.9,1.1-0.8,1.9l0,0.1c0.4-0.4,0.9-0.8,1.5-1.1C123.7,27.9,124.3,27.8,125,27.8z M124.7,30.5c-0.9,0-1.6,0.4-2,1.1
		c-0.4,0.7-0.6,1.6-0.6,2.8v0.2c0,1.2,0.2,2.1,0.6,2.8c0.4,0.7,1.1,1.1,2,1.1c0.9,0,1.5-0.4,2-1.1c0.4-0.7,0.6-1.6,0.6-2.8v-0.2
		c0-1.1-0.2-2.1-0.6-2.8C126.3,30.8,125.6,30.5,124.7,30.5z"/>
	<path class="st0" d="M144.3,40.8h-3.5v-5h-4.2v5h-3.5V28h3.5v5.2h4.2V28h3.5V40.8z"/>
	<path class="st0" d="M151.4,32.2h2.4c1.7,0,3.1,0.4,4.1,1.2c1,0.8,1.5,1.8,1.5,3.1c0,1.3-0.5,2.4-1.5,3.1c-1,0.8-2.3,1.2-4.1,1.2
		h-5.9V28h3.5V32.2z M151.4,34.8v3.4h2.4c0.7,0,1.2-0.2,1.6-0.5c0.3-0.3,0.5-0.7,0.5-1.2c0-0.5-0.2-0.9-0.5-1.2
		c-0.3-0.3-0.9-0.5-1.6-0.5H151.4z M164,40.8h-3.5V28h3.5V40.8z"/>
	<path class="st0" d="M175.9,28h3.4v12.8h-3.4V33l-0.1,0l-4.2,7.8h-3.5V28h3.5v7.8l0.1,0L175.9,28z M177.8,22.5L177.8,22.5
		c0.1,1.1-0.3,1.9-1,2.5c-0.7,0.6-1.7,1-3,1c-1.3,0-2.2-0.3-3-1c-0.7-0.6-1.1-1.5-1-2.5l0-0.1h2.5c0,0.4,0.1,0.8,0.4,1
		c0.2,0.3,0.6,0.4,1.1,0.4c0.5,0,0.9-0.1,1.1-0.4c0.2-0.3,0.4-0.6,0.4-1H177.8z"/>
	<path class="st0" d="M79.9,65.4h-2.4v-18h2.4V65.4z"/>
	<path class="st0" d="M97.3,49.3h-5.9v16.1h-2.4V49.3H83v-1.9h14.2V49.3z"/>
	<path class="st0" d="M104.9,58.7h-7.3v-1.9h7.3V58.7z"/>
	<path class="st0" d="M109.3,52h2.4v11.5h6V52h2.4v11.5h1.6v6.3h-2.4v-4.4h-10V52z"/>
	<path class="st0" d="M130.5,65.6c-1.9,0-3.4-0.6-4.5-1.8c-1.1-1.2-1.6-2.8-1.6-4.8v-0.5c0-1.9,0.6-3.5,1.7-4.8
		c1.1-1.3,2.5-1.9,4.1-1.9c1.8,0,3.1,0.6,4,1.7c0.9,1.1,1.3,2.6,1.3,4.4v1.3H127l0,0.1c0,1.3,0.3,2.4,0.9,3.3
		c0.6,0.8,1.5,1.3,2.7,1.3c0.8,0,1.5-0.1,2.2-0.4c0.6-0.2,1.2-0.6,1.6-1l1,1.6c-0.5,0.5-1.1,0.9-1.9,1.2
		C132.6,65.5,131.7,65.6,130.5,65.6z M130.2,53.6c-0.8,0-1.6,0.3-2.1,1c-0.6,0.7-0.9,1.5-1,2.5l0,0.1h6V57c0-1-0.2-1.8-0.7-2.4
		C131.9,54,131.2,53.6,130.2,53.6z"/>
	<path class="st0" d="M149.7,65.4h-2.4v-5.7h-6v5.7h-2.4V52h2.4v5.8h6V52h2.4V65.4z"/>
	<path class="st0" d="M164.2,53.9h-4.4v11.5h-2.4V53.9H153V52h11.2V53.9z"/>
	<path class="st0" d="M178.9,59.2c0,1.9-0.5,3.5-1.4,4.7c-0.9,1.2-2.2,1.8-3.8,1.8c-0.8,0-1.5-0.1-2.2-0.4c-0.6-0.3-1.2-0.7-1.6-1.2
		v6.5h-2.4V52h1.9l0.4,1.7c0.4-0.6,1-1.1,1.6-1.5c0.7-0.3,1.4-0.5,2.3-0.5c1.7,0,2.9,0.7,3.9,2c0.9,1.3,1.4,3.1,1.4,5.2V59.2z
		 M176.5,58.9c0-1.5-0.3-2.8-0.9-3.7s-1.5-1.5-2.6-1.5c-0.7,0-1.3,0.2-1.8,0.5c-0.5,0.3-0.9,0.8-1.2,1.3V62c0.3,0.6,0.7,1,1.2,1.3
		c0.5,0.3,1.1,0.5,1.8,0.5c1.2,0,2-0.4,2.6-1.3s0.9-1.9,0.9-3.3V58.9z"/>
</g>
<g>
	<path class="st0" d="M40.6,58.2h2.7c1.1,0,1.9-0.9,1.9-1.9V51c0-1.1-0.9-1.9-1.9-1.9h-2.7c-0.3,0-0.5,0.2-0.5,0.5v8
		C40,58,40.3,58.2,40.6,58.2z"/>
	<path class="st0" d="M21.5,28.1c0-1.2,0-2.3,0-3.4c0-0.7-0.5-1.1-1.3-1.1c-0.8,0-1.3,0.4-1.3,1.1c0,1.1,0,2.2,0,3.4
		C19.8,28.1,20.6,28.1,21.5,28.1z"/>
	<path class="st0" d="M60.7,8.3L32.3,0.1c-0.5-0.1-1-0.1-1.4,0l-29,8.2C0.8,8.6,0,9.7,0,10.8V97c0,1.1,1,1.8,2,1.5l58.8-17
		c1.1-0.3,1.8-1.3,1.8-2.5V10.8C62.6,9.7,61.8,8.6,60.7,8.3z M37.1,25.5c0-1.8,0.6-3.5,2.5-4.3c2.1-0.9,4.8-0.7,6.2,0.9
		c0.6,0.6,1,1.6,1.1,2.4c0.2,2.1,0.1,4.2,0.1,6.4h-6.2c0,1.7,0,3.4,0,5c0,0.6,0.5,1.1,1.2,1.1c0.7,0.1,1.1-0.2,1.3-0.9
		c0.1-0.5,0.1-1.1,0.2-1.6c0-0.4,0-0.8,0-1.2c1.2,0,2.4,0,3.6,0c0,2,0.1,4-1.6,5.5c-0.6,0.5-1.4,0.9-2.2,1.1
		c-2.1,0.6-4.5-0.2-5.6-2.1c-0.5-0.8-0.7-1.8-0.7-2.7C37.1,31.8,37.1,28.6,37.1,25.5z M15.2,25.6c0-1.3,0.3-2.6,1.2-3.6
		c1.2-1.4,2.9-1.6,4.6-1.4c1.4,0.2,2.8,0.7,3.4,2.1c0.4,0.8,0.6,1.8,0.7,2.7c0.1,1.7,0,3.5,0,5.3H19c0,1.8,0,3.5,0,5.3
		c0,0.7,0.6,0.9,1.2,0.9c0.6,0.1,1.1-0.3,1.2-0.9c0.1-0.8,0.1-1.6,0.2-2.5c0-0.1,0-0.2,0-0.4c1.2,0,2.3,0,3.6,0
		c0.1,2.2,0.2,4.5-2.2,6c-0.4,0.2-1,0.5-1.5,0.5c-2.3,0.4-4.7,0.1-5.9-2.8c-0.3-0.6-0.4-1.3-0.4-2C15.1,31.8,15.1,28.7,15.2,25.6z
		 M10.8,18.5c0.9-0.1,1.8-0.5,2.7-0.7v21.8c-1.1,0-2.2,0-3.5,0c0-0.3,0-0.5,0-0.8c0-6.4,0-12.8,0-19.3C10,19,10.1,18.7,10.8,18.5z
		 M29.6,43c0,7.3,0,14.7,0,22c0,3.7-2.3,6.5-5.9,7.3c-1.3,0.3-2.6,0.2-4,0.2c-1.3,0-2.7,0.1-4-0.2c-2.8-0.5-5.1-3.1-5.5-5.9
		c-0.1-0.6-0.2-1.3-0.2-1.9c0-7.1,0-14.3,0-21.4c0-0.3,0-0.6,0-0.9c2.4,0,4.7,0,7.1,0v21.5c0,0.9,0.8,1.7,1.7,1.7h1.9
		c0.9,0,1.7-0.8,1.7-1.7V42.1c2.4,0,4.7,0,7.1,0C29.6,42.4,29.6,42.7,29.6,43z M32.6,39.6c-1.1,0.1-2.2,0-3.3,0
		c-1.2-6.3-2.3-12.5-3.5-18.7h3.4c0.6,3.7,1.2,7.3,1.7,10.9c0.4-2.5,0.8-4.9,1.2-7.4c0.2-1.2,0.3-2.3,0.6-3.5c0,0,0-0.1,0.1-0.1
		c1.1-0.1,2.1,0,3.4,0c-0.2,1.1-0.3,2.1-0.5,3c-0.5,2.9-1.1,5.7-1.6,8.6C33.5,34.9,33.1,37.2,32.6,39.6
		C32.6,39.6,32.6,39.6,32.6,39.6z M52.4,58.1c-0.1,3.5-2.6,6.6-6.2,7.1c-1.8,0.2-3.6,0.1-5.3,0.2c-0.3,0-0.5,0-0.9,0
		c0,2.4,0,4.8,0,7.2h-7.1c0-10.2,0-20.4,0-30.7c0.3,0,0.6,0,0.8,0c3.6,0,7.2,0,10.8,0c2.2,0,4.2,0.8,5.8,2.4c1.3,1.3,2,3,2,4.8
		C52.5,52.2,52.5,55.1,52.4,58.1z M52.6,39.6h-3.5V17.8c1,0.3,2,0.5,3,0.9c0.2,0.1,0.4,0.5,0.4,0.8c0,5.7,0,11.5,0,17.2
		C52.6,37.7,52.6,38.6,52.6,39.6z"/>
	<path class="st0" d="M43.5,28.1c0-1.1,0-2.2,0-3.3c0-0.6-0.2-1.1-1-1.2c-0.9-0.1-1.6,0.2-1.7,0.9c-0.1,1.2,0,2.4,0,3.6
		C41.7,28.1,42.5,28.1,43.5,28.1z"/>
</g>
</svg>
