<?xml version="1.0" encoding="UTF-8"?> <svg xmlns="http://www.w3.org/2000/svg" id="Layer_1" data-name="Layer 1" viewBox="0 0 512 512"> <defs> <style>.cls-1{fill:#fff;}</style> </defs> <title>Artboard 1</title> <path class="cls-1" d="M500.3637,69.8182H11.6364A11.6257,11.6257,0,0,0,0,81.4545V430.5455a11.6257,11.6257,0,0,0,11.6364,11.6364H500.3637A11.6332,11.6332,0,0,0,512,430.5455V81.4545A11.6332,11.6332,0,0,0,500.3637,69.8182ZM488.7273,390.7608,344.576,246.6211l-16.4538,16.4538L483.9564,418.9091H28.0436L183.8778,263.0749,167.424,246.6211,23.2727,390.7608V93.0909H488.7273Z"></path> <path class="cls-1" d="M465.21,93.0909,256,302.3011,46.79,93.0909H23.2727v9.3905l224.5,224.5a11.6233,11.6233,0,0,0,16.4538,0l224.5-224.5V93.0909Z"></path> </svg> 