<?xml version="1.0" encoding="utf-8"?>
<!-- Generator: Adobe Illustrator 21.0.2, SVG Export Plug-In . SVG Version: 6.00 Build 0)  -->
<svg version="1.1" id="Capa_1" xmlns="http://www.w3.org/2000/svg" xmlns:xlink="http://www.w3.org/1999/xlink" x="0px" y="0px"
	 viewBox="0 0 512 512" style="enable-background:new 0 0 512 512;" xml:space="preserve">
<style type="text/css">
	.st0{fill:#EAFF00;}
</style>
<title>Artboard 1</title>
<path class="st0" d="M473.7,397.2l-83.4-36.1c-2-1-4.1-3.4-6-6.6l55.7,0c1,0.1,23.9,2.2,42.3-5.7c12.8-5.6,18.7-20.5,13.1-33.4
	c-0.7-1.6-1.5-3.1-2.5-4.4c-15.9-22.6-53.1-81.8-54.2-141.9c0-1-3.4-103.1-104.2-103.9c-14,0-27.9,2.5-41,7.3
	c-3-7.7-7.3-14.8-12.7-21c-17.5-20-46-30.1-84.5-30.1s-67,10.1-84.5,30.1c-20.2,23-18.3,51-17.9,55.7v45.4
	c-5.5,6.2-8.5,14.1-8.5,22.4v34.1c0,10.3,4.7,20.1,12.8,26.5c7.8,31,24.2,54.3,29.9,61.8v28.2c0,8.3-4.5,15.8-11.8,19.8l-76.1,41.5
	C15.4,400.4,0,426.3,0,454.5v36.2h512v-31.5C512.1,432.9,497.3,408.9,473.7,397.2z M375.5,473.6H17.1v-19.1
	c0-21.9,12-42.1,31.2-52.6l76.1-41.5c12.7-6.9,20.7-20.3,20.7-34.8v-34.3l-2-2.4c-0.2-0.2-21.1-25.5-29.1-60.3l-0.8-3.4l-2.9-1.9
	c-4.9-3.1-7.9-8.5-7.9-14.3v-34.1c0-4.8,2.1-9.4,5.7-12.6l2.8-2.5v-53.1l-0.1-1.1c0-0.2-2.9-23.9,13.7-42.8
	c14.1-16.1,38.3-24.3,71.7-24.3c33.3,0,57.4,8.1,71.6,24.1c6.1,7,10.3,15.4,12.3,24.5c0.1,0.6,0.3,1.2,0.4,1.8
	c0.1,0.6,0.2,1.2,0.3,1.8c0.1,0.7,0.2,1.3,0.3,1.9c0.1,0.5,0.1,0.9,0.2,1.3c0.1,1.1,0.2,2.1,0.3,3c0,0.1,0,0.1,0,0.2
	c0.1,0.9,0.1,1.8,0.1,2.6c0,0.2,0,0.3,0,0.4c0,0.7,0,1.4,0,2v0.3c0,2-0.2,3.2-0.2,3.2l-0.1,54.2l2.8,2.5c3.6,3.2,5.7,7.8,5.7,12.6
	v34.1c0,7.5-5,14.1-12.1,16.2l-4.2,1.3l-1.4,4.2c-5.5,17.4-13.7,33.8-24.2,48.8c-2.2,3.2-4.6,6.3-7.1,9.2l-2.1,2.4v35.2
	c0,2.1,0.2,4.3,0.5,6.4c0.1,0.4,0.2,0.9,0.3,1.3c0.3,1.7,0.8,3.4,1.3,5c0.1,0.4,0.3,0.8,0.4,1.1c0.7,1.8,1.4,3.5,2.3,5.2
	c0.1,0.2,0.2,0.4,0.3,0.6c1.2,2.2,2.7,4.3,4.3,6.2l1.9,2.4h0.3c3,3,6.4,5.4,10.1,7.3l81.5,40.8c20.4,10.1,33.2,30.9,33.1,53.6
	L375.5,473.6z M494.9,473.6H392.5v-17.4c0.1-29.2-16.4-55.9-42.5-68.8L291.5,358c3.2-7.5-0.3-16.2-7.8-19.4
	c-1.8-0.8-3.8-1.2-5.8-1.2H259c-0.4-0.7-0.7-1.4-1-2.2c-1.4-2.7-2.1-5.8-2-8.9v-28.9c2-2.4,4-5.1,6.1-8.1
	c10.7-15.2,19.2-31.9,25.2-49.5c12.1-5.5,19.9-17.6,19.9-30.9v-34.1c0-8.3-3.1-16.2-8.5-22.4v-45.4c0.5-6.1,0.3-12.2-0.7-18.3
	c11.7-4.4,24.1-6.7,36.6-6.7c84,0.7,87,83.7,87.1,87.2c1.3,64.7,40.5,127.4,57.3,151.3c1.4,2.1,1.9,4.6,1.2,7.1
	c-0.6,2.4-2.3,4.3-4.6,5.2c-14.3,6.2-33.8,4.4-34.8,4.4h-58.7c-8.7,0-15.7,7-15.7,15.7c0,2.4,0.6,4.8,1.6,6.9
	c2.7,5.4,7.4,12.6,15.1,16.4l83.2,36c17.6,8.8,28.7,26.8,28.6,46.5L494.9,473.6z"/>
</svg>
