<?xml version="1.0" encoding="utf-8"?>
<!-- Generator: Adobe Illustrator 21.0.2, SVG Export Plug-In . SVG Version: 6.00 Build 0)  -->
<svg version="1.1" id="Capa_1" xmlns="http://www.w3.org/2000/svg" xmlns:xlink="http://www.w3.org/1999/xlink" x="0px" y="0px"
	 viewBox="0 0 512 2048" style="enable-background:new 0 0 512 2048;" xml:space="preserve">
<style type="text/css">
	.st0{fill:#FF1569;}
	.st1{fill:#FFFFFF;}
	.st2{fill:#EAFF00;}
	.st3{fill:#15ACF2;}
</style>
<g>
	<g>
		<path class="st0" d="M500.9,422.5h-33.4V10.7c0-6.2-5-11.1-11.1-11.1H55.7c-6.2,0-11.1,5-11.1,11.1v411.8H11.1
			c-6.2,0-11.1,5-11.1,11.1v66.8c0,6.2,5,11.1,11.1,11.1h489.7c6.2,0,11.1-5,11.1-11.1v-66.8C512,427.5,507,422.5,500.9,422.5z
			 M333.9,21.8h44.5v256c0,6.2,5,11.1,11.1,11.1s11.1-5,11.1-11.1v-256h44.5v400.7h-44.5v-77.9c0-6.2-5-11.1-11.1-11.1
			s-11.1,5-11.1,11.1v77.9h-44.5V21.8z M66.8,21.8h244.9v400.7H66.8V21.8z M489.7,489.3H22.3v-44.5h467.5V489.3z"/>
	</g>
</g>
<g>
	<g>
		<path class="st0" d="M256,66.3H122.4c-6.2,0-11.1,5-11.1,11.1v66.8c0,6.2,5,11.1,11.1,11.1H256c6.2,0,11.1-5,11.1-11.1V77.5
			C267.1,71.3,262.2,66.3,256,66.3z M244.9,133.1H133.6V88.6h111.3V133.1z"/>
	</g>
</g>
<g>
	<g>
		<path class="st0" d="M256,199.9H122.4c-6.2,0-11.1,5-11.1,11.1v66.8c0,6.2,5,11.1,11.1,11.1H256c6.2,0,11.1-5,11.1-11.1V211
			C267.1,204.9,262.2,199.9,256,199.9z M244.9,266.7H133.6v-44.5h111.3V266.7z"/>
	</g>
</g>
<g>
	<g>
		<path class="st0" d="M256,333.5H122.4c-6.2,0-11.1,5-11.1,11.1s5,11.1,11.1,11.1H256c6.2,0,11.1-5,11.1-11.1
			S262.2,333.5,256,333.5z"/>
	</g>
</g>
<g>
	<g>
		<path class="st1" d="M500.9,934.5h-33.4V522.7c0-6.2-5-11.1-11.1-11.1H55.7c-6.2,0-11.1,5-11.1,11.1v411.8H11.1
			c-6.2,0-11.1,5-11.1,11.1v66.8c0,6.2,5,11.1,11.1,11.1h489.7c6.2,0,11.1-5,11.1-11.1v-66.8C512,939.5,507,934.5,500.9,934.5z
			 M333.9,533.8h44.5v256c0,6.2,5,11.1,11.1,11.1s11.1-5,11.1-11.1v-256h44.5v400.7h-44.5v-77.9c0-6.2-5-11.1-11.1-11.1
			s-11.1,5-11.1,11.1v77.9h-44.5V533.8z M66.8,533.8h244.9v400.7H66.8V533.8z M489.7,1001.3H22.3v-44.5h467.5V1001.3z"/>
	</g>
</g>
<g>
	<g>
		<path class="st1" d="M256,578.3H122.4c-6.2,0-11.1,5-11.1,11.1v66.8c0,6.2,5,11.1,11.1,11.1H256c6.2,0,11.1-5,11.1-11.1v-66.8
			C267.1,583.3,262.2,578.3,256,578.3z M244.9,645.1H133.6v-44.5h111.3V645.1z"/>
	</g>
</g>
<g>
	<g>
		<path class="st1" d="M256,711.9H122.4c-6.2,0-11.1,5-11.1,11.1v66.8c0,6.2,5,11.1,11.1,11.1H256c6.2,0,11.1-5,11.1-11.1V723
			C267.1,716.9,262.2,711.9,256,711.9z M244.9,778.7H133.6v-44.5h111.3V778.7z"/>
	</g>
</g>
<g>
	<g>
		<path class="st1" d="M256,845.5H122.4c-6.2,0-11.1,5-11.1,11.1c0,6.2,5,11.1,11.1,11.1H256c6.2,0,11.1-5,11.1-11.1
			C267.1,850.4,262.2,845.5,256,845.5z"/>
	</g>
</g>
<g>
	<g>
		<path class="st2" d="M500.9,1446.5h-33.4v-411.8c0-6.2-5-11.1-11.1-11.1H55.7c-6.2,0-11.1,5-11.1,11.1v411.8H11.1
			c-6.2,0-11.1,5-11.1,11.1v66.8c0,6.2,5,11.1,11.1,11.1h489.7c6.2,0,11.1-5,11.1-11.1v-66.8C512,1451.5,507,1446.5,500.9,1446.5z
			 M333.9,1045.8h44.5v256c0,6.2,5,11.1,11.1,11.1s11.1-5,11.1-11.1v-256h44.5v400.7h-44.5v-77.9c0-6.2-5-11.1-11.1-11.1
			s-11.1,5-11.1,11.1v77.9h-44.5V1045.8z M66.8,1045.8h244.9v400.7H66.8V1045.8z M489.7,1513.3H22.3v-44.5h467.5V1513.3z"/>
	</g>
</g>
<g>
	<g>
		<path class="st2" d="M256,1090.3H122.4c-6.2,0-11.1,5-11.1,11.1v66.8c0,6.2,5,11.1,11.1,11.1H256c6.2,0,11.1-5,11.1-11.1v-66.8
			C267.1,1095.3,262.2,1090.3,256,1090.3z M244.9,1157.1H133.6v-44.5h111.3V1157.1z"/>
	</g>
</g>
<g>
	<g>
		<path class="st2" d="M256,1223.9H122.4c-6.2,0-11.1,5-11.1,11.1v66.8c0,6.2,5,11.1,11.1,11.1H256c6.2,0,11.1-5,11.1-11.1V1235
			C267.1,1228.9,262.2,1223.9,256,1223.9z M244.9,1290.7H133.6v-44.5h111.3V1290.7z"/>
	</g>
</g>
<g>
	<g>
		<path class="st2" d="M256,1357.5H122.4c-6.2,0-11.1,5-11.1,11.1s5,11.1,11.1,11.1H256c6.2,0,11.1-5,11.1-11.1
			S262.2,1357.5,256,1357.5z"/>
	</g>
</g>
<g>
	<g>
		<path class="st3" d="M500.9,1958.5h-33.4v-411.8c0-6.2-5-11.1-11.1-11.1H55.7c-6.2,0-11.1,5-11.1,11.1v411.8H11.1
			c-6.2,0-11.1,5-11.1,11.1v66.8c0,6.2,5,11.1,11.1,11.1h489.7c6.2,0,11.1-5,11.1-11.1v-66.8C512,1963.5,507,1958.5,500.9,1958.5z
			 M333.9,1557.8h44.5v256c0,6.2,5,11.1,11.1,11.1s11.1-5,11.1-11.1v-256h44.5v400.7h-44.5v-77.9c0-6.2-5-11.1-11.1-11.1
			s-11.1,5-11.1,11.1v77.9h-44.5V1557.8z M66.8,1557.8h244.9v400.7H66.8V1557.8z M489.7,2025.3H22.3v-44.5h467.5V2025.3z"/>
	</g>
</g>
<g>
	<g>
		<path class="st3" d="M256,1602.3H122.4c-6.2,0-11.1,5-11.1,11.1v66.8c0,6.2,5,11.1,11.1,11.1H256c6.2,0,11.1-5,11.1-11.1v-66.8
			C267.1,1607.3,262.2,1602.3,256,1602.3z M244.9,1669.1H133.6v-44.5h111.3V1669.1z"/>
	</g>
</g>
<g>
	<g>
		<path class="st3" d="M256,1735.9H122.4c-6.2,0-11.1,5-11.1,11.1v66.8c0,6.2,5,11.1,11.1,11.1H256c6.2,0,11.1-5,11.1-11.1V1747
			C267.1,1740.9,262.2,1735.9,256,1735.9z M244.9,1802.7H133.6v-44.5h111.3V1802.7z"/>
	</g>
</g>
<g>
	<g>
		<path class="st3" d="M256,1869.5H122.4c-6.2,0-11.1,5-11.1,11.1s5,11.1,11.1,11.1H256c6.2,0,11.1-5,11.1-11.1
			S262.2,1869.5,256,1869.5z"/>
	</g>
</g>
</svg>
